<?xml version="1.0" encoding="UTF-8"?>
<svg id="Layer_2" data-name="Layer 2" xmlns="http://www.w3.org/2000/svg" viewBox="0 0 57.56 39.45">
  <g id="Layer_1-2" data-name="Layer 1">
    <path d="M17.14,15.37c-1.47-.88-1.72.18-2.74.99-.57.5-.49,1.89-.55,2.99-.16,1.52,1.04,2.2,2.66,2.65.78-.06,2.53-.51,2.38-1.62,1.33-1.38-.22-2.41-.57-4.16,1.86,1.02,3.31,2.1,4.99,3.31l-1.67.06c.67.29.62,1.13-.26.73-1.06,1.67-2.6,3.54-4.77,3.17-2.02.23-3.88-1.29-4.18-3.36-.62-3.15.98-5.65,3.6-6.67l5.75-.59c4.33,1.56,8.43,1.87,12.89.78,3.69-1.77,8.29-2.76,11.79-1.11,2.19,1.9,3.91,3.42,4.51,5.94.63,2.38-.68,5.03-2.11,7.23-3.65,3.45-9.19,5.57-14.32,4.65l-9.82-.38c-6.35.99-13.01-.13-17.71-3.68-3.81-4.45-4.38-9.98-1.08-14.74,2.45-3.33,6.43-4.69,10.59-6.09,8.33-1.62,16.91-1.93,25.42-.95,4.34.36,7.99,1.78,11.2,4.7,4,3.45,5.16,9.37,4,14.05-1.2,6.02-5.5,9.7-10.88,12.42-10.46,4.8-22.56,4.95-32.52.68,2.19-.11,4.5.37,6.65.53,2.51,1.35,5.1.18,7.77,1,2.82-.11,5.95-.48,8.99-1.03,5.96-.84,11.36-3.08,15.42-7.59,3.73-4.53,4.65-9.81,2.59-15.01-2.85-5.02-8.03-7.46-13.84-8.21l-14.24-.04c-6.16.67-12.48,1.01-17.44,4.11-4.59,4.12-5.69,10.08-1.52,14.89,2.99,2.08,6,3.12,9.26,3.25,3.21.12,6.73-.06,10.09-.38,2.82-.05,5.9.9,8.85.64,5.43.53,11.76-1.56,13.12-8.17.32-2.92-1.69-5.04-3.9-6.44-2.69-1.28-5.18-.45-7.9.58-4.41,2.21-9.37,2.4-13.82.45-2.53-.22-4.67-1.25-6.67.4Z"/>
    <path d="M38.33,9.72c-5.82,1.78-11.43,1.1-17.12.69-4.42-.16-8.48,1.1-10.36,5.09-1.79,1.93-1.5,4.57.3,6.79.49,1.78,3.19,2.33,5.5,2.56,4.33-.12,8.7-.83,12.59-1.69,1.57.38,2.89,1.04,4.58.62,3.14,1.98,8.11,1.73,10.61-.9.74-1.91,1.88-3.19.92-4.78-.84-1.39-2.45-2.19-4.35-1.88-1.82,1.45-1.39,3.53.09,5.66-1.31.33-3.02-.1-3.05-1.38-.94-.08-1.12-.12-1.64-.29,0-.71.02-.85.17-1.74.26-.15.7-.2,1.22-.26,1.23-3.13,4.45-4.44,6.92-2.34,3.04,1.05,2.8,4.42,1.29,7.4-2.83,3.7-7.87,4.39-11.8,2.83-2.67-.77-5.04-1.08-8.06-.81-5.58,1.72-11.76,2.06-16.57-1.66-1.77-3.14-2.31-6.89-.07-9.64,2.38-4.08,6.76-5.09,11.03-5.59,5.9.82,12.28.66,18.82-.58,4.59-.06,9.23.44,12,4.17,2.64,2.52,3.66,7.26,2.48,10.97-1.19,2.93-2.34,5.89-5.19,7.49-2.95,2.17-6.06,3.23-9.77,4.12-8.92,1.15-18.2.38-26.68-1.77C7.03,30.54,1.76,28.18.32,22.77.07,18.31-.93,13.72,2.62,10.81c2.08-3.68,6.06-6.05,10.06-7.83,9.14-3.31,22.02-4.55,34.38-.1-3.87.3-7.31-1.24-10.9-1.2-1.84.53-3.52-.92-5.27-.38-6.94.56-13.69,1.68-20.02,4.09C3.65,8.44-.25,15.43,2.01,23.17c1.09,1.43,2.05,2.82,2.92,4.75,1.8.93,3.82,2.2,6.08,2.9,9.66,2.36,19.75,3.71,29.24,1.5,4.65-1.29,8.41-3.03,10.8-7.25,1.97-2.16,2.46-5.75,1.46-8.43-1.15-2.84-2.78-5.02-5.98-6.14-2.42-1.29-5.22-.72-8.21-.79Z"/>
  </g>
</svg>