<?xml version="1.0" encoding="UTF-8"?>
<svg id="Layer_2" data-name="Layer 2" xmlns="http://www.w3.org/2000/svg" viewBox="0 0 45.6 33.3">
  <g id="Layer_1-2" data-name="Layer 1">
    <path d="M18.32,16.41c-1.13.81-1.69,1.93-1.79,3.3l-.1,1.4-.1,2.87c-.07,1.91-.72,3.66-1.69,5.29-.2.34-.71.57-1.07.55-.54-.02-1.01.4-.77.95.15.34.89.68,1.33.54.25-.08.38-.74.31-1.05l.41-.58c1.39-1.97,1.93-4.26,1.93-6.62,0-1.57.07-3.08.39-4.63.17-.81,1.08-1.49,1.74-1.93.22.05.33.15.04.16l-.77,1.62c-.35.73-.41,1.72-.26,2.51l.2,1.05.31,1.57.24,2.35-.18,2.28-.25,1.34c-.15.78-.46,1.41-1.13,1.86-.24.16-.29.94-.1,1.16.42.5,1.18.44,1.52-.15.2-.35.18-.85-.36-1.33l.39-1.4.38-1.48.14-1.27c.05-1.96-.22-3.79-.64-5.69-.33-1.47-.06-2.95.85-4.09l.21.09c-.59,1.33-.63,2.83-.22,4.02l.62,1.75.83,2.08.63,2.02c.24,1.37.48,3.06-.16,4.37l-.48,1.39c.18.53.56.54.82.57.56.07,1.07-.67.88-1.18l-.75-.61.17-1c.37-2.18-.13-4.15-.92-6.18l-1.05-2.7-.39-1.65c-.05-.23-.08-.85-.01-1.12l.39-1.54c.19-.06.33.3.24.73l-.13,1c-.02.77.35,1.78.75,2.47l1.37,2.35.56.92.92,1.52c.51.85,1.02,1.68,1.21,2.66l.42,2.19-.51,1.28c.2.27.61.53.9.54.25,0,.78-.4.81-.66.07-.64-.63-.71-.81-1.65l-.26-1.31c-.24-1.19-.78-2.25-1.42-3.28l-1.14-1.85-2.06-3.66-.38-1.26c-.07-.23.15-1.47.23-1.48-.16,1.73,2.13,4.47,3.62,5.83,1.32,1.2,2.47,2.39,3.29,4.01l.85,1.68c.77,1.52-.35,2.15.16,2.78.25.3.9.33,1.17.18.26-.14.62-.74.52-1.02-.16-.41-.73-.7-1.06-.75-.14-.56-.36-1.24-.64-1.81l-1.15-2.27-.59-.91-2.18-2.14-2.49-2.69c-.59-.63-.95-2.14-1.12-2.96l1.47,2.03,1.19,1.08,2.44,1.86,1.64,1.16,2.15,1.98,1.88,2.74c.5.73.59,1.41.61,2.36,0,.37.94.49,1.25.21.28-.25.38-.9.17-1.17l-1.02-.38-1.61-2.77-1.37-1.76-2.71-2.26-1.74-1.08-1.6-1.21-1.8-1.9c-.11-.1-.48-.7-.42-.76.62.61,1.14,1.26,1.88,1.63l4.81,2.41c1.29.65,2.69,1.06,3.81,1.98l1.88,1.53.66.76,1.41,1.7c.26.31-.43,1.65.61,1.84.32.06,1.02-.4,1.04-.73.02-.36-.34-.89-.61-.98-.45-.14-.76-.4-1.03-.72l-1.1-1.39c-1.27-1.59-3.41-3.04-5.33-3.91l-2.79-1.26-2-1.05c-.92-.48-1.96-1.18-2.73-1.8.03-.12.47-.02.57.03l.72.26.97.43,1.37.59,1.65.56,1.2.32,2.39.7,2.5.99c1.3.51,2.44,1.16,3.53,2.06l1.78,1.47-.15.53c-.08.27,0,.83.2,1.01.39.35,1.29.15,1.5-.35.06-.15,0-.67-.14-.75l-1.08-.66-1.88-1.61c-1.07-.92-2.21-1.62-3.53-2.12l-2.4-.89-2.11-.63-1.36-.39-1.89-.56-1.43-.57c-.5-.2-.66-.29-1.1-.61l2.61.18,1.69.26,5.76.94,2.04.56,2.88.94,2.7,1.18.11.89c.03.21.4.62.61.63.47.01,1.19-.52,1.21-1.11,0-.24-.32-.77-.56-.85-.37-.13-.8-.04-1.12.1l-2.85-1.31-2.4-.8-1.3-.37-1.59-.34-2.46-.43-3.58-.53-3.29-.41,2.92-.44,2.54-.22,1.45-.14,2.6-.03,4.03.22,1.13.12,1.29.23,1.32.28c.63.13,1.37.4,1.9.68,0,.51.41,1.05.84,1,.24-.03.8-.36.9-.57.14-.28-.2-.96-.48-1.08s-.82-.07-1.14.01c-.16.04-.54-.13-.75-.18l-2.68-.68-1.67-.25-1.25-.06-2.34-.08-2.35-.05-2.14.12-2.14.18-3.68.38c.26-.34.93-.62,1.25-.7l3.07-.83,1.53-.39,2.29-.53,1.17-.22,1.83-.3,1.97-.26,4.29-.3,1.63.37c1.37.31,1.09.91,1.65,1.02.33.06.83-.43.87-.76.04-.29-.27-.74-.62-.92-.26-.13-.73.12-1.05.41l-1.44-.22-1.31-.18-1.57-.02-2.15.21-2.88.39-2.22.34-3.58.87-3.43.88-1.13.47,1.04-.82,1.04-.56,1.81-.87,1.33-.64,1.57-.68,4.58-1.7,1.34-.44,2.22-.51,1.19-.16c.79-.1,1.88-.49,2.62-.15l1.04.48c.2.09.74-.3.79-.53.06-.28-.05-.93-.21-1.14-.35-.49-1.17-.27-1.42.27-.1.21-.61.41-.83.41-1.23-.01-2.31.11-3.46.4l-1.79.44-2.61.88-3.61,1.31-1.89.95-3.59,1.77c-.51.25-.18.29-.81.45l1.33-1.31,3.91-3.23,1.01-.63,1.31-.76,3.24-1.58,1.57-.74,1.45-.65,1.31-.31c.74-.27,1.12.49,1.63.32.18-.06.52-.37.62-.56.13-.25-.15-.83-.37-1-.2-.15-.83-.29-.98-.08l-.62.83-2.07.56-3.39,1.52-1.66.78-1.81.97-2.04,1.33-1.98,1.54c-.2.24-2.55,2.77-2.46,2.43l3.9-4.44,1.06-.9,1.54-1.36,1.12-.99,3.97-2.94c.17-.13.7-.11.87-.12.7,0,1.15-.49,1.1-.86-.02-.17-.22-.5-.38-.66s-.81-.26-.99-.1c-.15.14-.34.51-.37.72l-.08.52c-.02.1-.4.08-.49.14l-3.01,2.22-2.77,2.32-1.6,1.54-.93,1.09-2.93,3.52c1.31-2.63,3.9-7.05,5.51-9.44l1.23-1.52c.13-.16.49-.32.82-.38.39-.07.7-.57.68-.96,0-.29-.61-.72-.88-.67-.6.11-.83.73-.69,1.25l-.52.72-1.66,2.28-2.19,3.85-.36.86-2.01,3.68.98-4.03c.26-1.26.46-2.53,1.06-3.7l1.77-3.44c.28-.54,1.37-.68,1.11-1.53-.06-.21-.38-.59-.59-.64-.36-.07-.98.35-1.01.65-.03.28.15.76.31,1.1l-1.49,2.47-.8,1.89-.8,3.34-.91,4.04.19-2.34-.33-3.2c-.05-.53-.31-1.3-.24-1.81l.36-2.58.58-2.24c.36-.12.82-.6.79-.9-.02-.26-.37-.64-.61-.76-.23-.11-.83.06-.92.31-.11.32.1.94.21,1.25l-.56,2.61-.19.89c-.3,1.39.05,2.76.26,4.15l.26,1.72c.1.66.08,2.08-.15,2.68l-.41-1.99-.59-1.87-.97-2.74-.34-1.26-.52-2.47c-.45-2.14.41-1.93.36-2.75-.02-.3-.38-.69-.73-.78-.25-.06-.78.4-.78.66,0,.66.45.64.55,1.53l.21,1.88.36,1.98c.4,2.23,2.21,5.68,2.5,7.93l-1.76-4.1-.84-1.25-1.4-2.05-1.03-1.51-.9-1.51-.49-1.08c-.25-.56.41-.92.19-1.49-.07-.19-.45-.44-.73-.55-.23-.09-.79.22-.87.46s.07.79.28.93l.61.4c.61,1.4,1.33,2.75,2.22,4l1.43,2.03.83,1.15.89,1.41c.33.52.77,2.1,1.03,2.89l-.64-1.28-.47-.94c-.56-.88-1.36-1.71-2.18-2.4l-1.32-1.11-1.03-.78-2.41-1.83-1.4-1.31-.98-1.01.51-.69c.12-.17-.21-.83-1.03-1.03-.37-.09-1.11.91-.77,1.24.13.13.37.26.63.42.23.14.56.52.83.75l3.5,3.09,1.86,1.37,1.43,1.12,1.81,1.96c.49.53.78,1.38.98,2.04-.74-1-1.36-1.77-2.27-2.55l-1-.85-2.05-1.03-6.14-2.7-2.24-1.24-.06-.89-1.02-.48c-.5.04-1.02.87-.74,1.29.14.21.81.27,1.05.38l3.72,1.82,2.48,1.01,3.29,1.53c1.75.81,3.5,1.97,4.17,3.64l-.66-.53c-.86-.67-1.78-1.4-2.83-1.88-1.32-.61-2.74-1.01-4.14-1.27l-1.4-.26-2.33-.48-1.36-.21-3.64-.72c-.39-.08-.3-.61-.73-1.03-.12-.12-.49-.05-.76.02-.3.07-.67.73-.55,1.02.38.89,1.24.13,1.91.33l1.19.35,1.75.31,2,.24,1.42.28,1.92.4c2.17.46,4.27,1.02,6.17,2.26l1.06.89-2.86-1.38c-.49-.24-2.88-.58-3.88-.49l-2.68.23-3.98.45c-1.39.16-2.82.48-4.12-.01-.16-.3-.42-.67-.62-.77s-.71.02-.86.18c-.23.25-.45.91-.32,1.15s.73.57.95.45l.82-.44c.31-.17,1.28.22,3.35-.05l2.11-.27,4.62-.57h1.46s2.06.26,2.06.26c.31.04.88.21,1.17.34l2.07,1.1-1.08-.4c-.33-.18-.93-.38-1.19-.43l-1.03-.18c-1.18-.2-2.36.25-3.47.64l-2.49.89-1.98.7-1.5.54-2.77.82-2.32.13c-.15-.33-.38-.71-.59-.79-.18-.06-.56.02-.79.14-.43.22-.6.84-.4,1.19s.8.54,1.06.37l.85-.55c1.39.02,2.66-.14,3.95-.56l1.24-.4,1.63-.57,2.23-.79,3.26-1.07c1.61-.53,3.53-.13,5.13.74l-2.32.08c-.86.03-1.83.43-2.61.83l-3.33,1.72-2.96,1.66c-1.1.61-2.31,1.2-3.51,1.51l-2.06.53c-.8.21-1.01-.89-1.56-.72-.33.1-.83.62-.9.96s.38.92.67.94c.39.03.69-.14,1.11-.47.31-.24,1-.33,1.46-.44l1.14-.26,2.08-.88,2.61-1.32,2.96-1.65,3.25-1.54c.78-.37,2.49-.71,3.19-.37l-2.49,1-1.97,1.14-.85.76-1.1,1.04-.98.83-.87.77-1.31,1.18-2.38,1.79-1.59,1c-.44.27-.99-.91-1.64-.59-.22.11-.56.53-.68.79-.21.47.04.95.47,1.12.56.22.96.09,1.27-.4.21-.33.55-.51.89-.71,1.53-.84,2.89-1.87,4.2-3.03l.99-.87,2.5-2.17.85-.85c.73-.73,1.64-1.15,2.56-1.6.79-.39,1.48-.72,2.38-.86l-2.12,1.35c-.85.55-1.66,1.19-2.27,2.03l-1.43,1.98-.91,1.58-1.41,2.11-.91.96-1.22,1-.94.68c-.62.45-.97-.64-1.78-.07-.2.14-.48.64-.48.86s.3.61.52.66c1.1.29,1.01-.84,1.94-1.31.97-.49,1.8-1.01,2.51-1.83l.99-1.15,1.39-2.27,1.35-2.15,1.66-1.85,2.7-1.84.02.17-1.47,1.32c-.68.6-1.3,1.42-1.59,2.29l-.79,2.31-.46,1.49-.83,2.05c-.15.37-.56.91-.84,1.21l-1.57,1.73c-.43.47-1.03.67-1.66.55-.3.09-.74.51-.87.93-.08.28.48.82.77.83.81.03.85-.89,1.15-1.14l.96-.78c.7-.57,1.22-1.26,1.67-2.01l.9-1.5.9-2.29.28-.95c.39-1.32.64-2.81,1.59-3.84l.93-1.01,1.22-.73"/>
  </g>
</svg>